<?xml version="1.0" encoding="UTF-8"?>
<svg version="1.1" viewBox="0 0 2048 589" width="368" height="106" xmlns="http://www.w3.org/2000/svg">
<path transform="translate(0)" d="m0 0h2048v589h-2048z" fill="#FEFFFE"/>
<path transform="translate(1843,168)" d="m0 0h24l14 2 20 8 12 7 12 9 9 8 8 11 1-41h41v256l-3 22-8 24-7 13-11 14-5 5-10 8-13 8-23 9-15 3-14 2h-14l-27-4-21-6-19-9-11-8-10-9-9-10-9-17-5-19v-3h40l3 5 8 15 12 12 10 6 17 7 17 2h22l17-4 12-5 9-6 9-9 7-11 5-12 3-16 1-10v-52l-8 9-7 8-10 9-14 9-16 7-14 3-9 1h-24l-20-3-21-9-11-7-11-10-7-6-12-16-8-14-9-24-2-9-2-18v-18l4-27 4-14 8-18 9-14 9-10 8-7 17-12 19-9 14-4z" fill="#391561"/>
<path transform="translate(1017,167)" d="m0 0h25l15 3 15 6 14 8 9 7 11 11 2 1v-34h63l1 11v166l-1 69-6 1h-35l-20-1-1-1-1-27-1-5-15 15-10 7-14 7-16 6-19 3h-13l-21-3-21-9-12-7-15-14-10-11-9-14-6-12-7-20-3-17-1-11v-21l3-20 4-15 6-15 5-10 11-16 10-11 14-11 16-8 14-5z" fill="#391561"/>
<path transform="translate(1234,106)" d="m0 0h58l29 2 20 4 16 6 11 6 9 7 9 9 7 11 7 14 4 17 1 7v19l-4 19-7 16-7 11-9 10-8 7-14 8-13 5-10 2 8 15 19 32 17 28 19 32 10 16 2 4v3h-46l-4-4-13-23-13-22-17-29-14-24-13-22v-2l-50-1v121l-1 5h-39l-1-1v-307z" fill="#391561"/>
<path transform="translate(53,105)" d="m0 0h66l4 9 12 36 18 52 15 43 18 53 14 40 3 11 2 1 1-5 12-34 22-64 21-61 15-43 12-35 2-3h65l-1 6-16 44-21 57-17 46-19 52-21 57-11 30-6 15-3 4h-72l-3-3-7-18-14-38-18-49-21-57-11-30-17-46-22-61-2-5z" fill="#391561"/>
<path transform="translate(603,166)" d="m0 0 22 1 19 4 17 7 11 6 11 9 8 10 8 16 5 16 2 12-59 1-3-5-4-10-4-6-7-5-12-4-6-1h-18l-11 3-6 4-4 6-1 3v9l3 8 5 5 8 5 18 6 27 7 22 7 16 7 12 8 11 10 7 11 4 9 3 14v16l-3 13-7 14-11 12-8 7-17 9-20 6-18 3h-25l-19-3-21-7-17-9-12-9-8-8-10-15-5-12-3-14v-4l2-1h61l4 10 6 9 7 6 12 5 11 2h13l12-3 8-4 6-10 1-2v-9l-4-8-6-4-19-7-34-10-23-7-16-7-9-6-10-9-8-10-6-13-2-9v-22l4-13 7-13 8-10 10-8 14-8 16-6 14-3z" fill="#391561"/>
<path transform="translate(769,109)" d="m0 0h61l1 1v59h55v51l-1 1-53 1v121l3 11 7 6 8 2 35 1 1 2v48l-2 3h-38l-18-2-19-5-12-6-10-8-8-10-6-12-4-16-1-6-1-16v-113l-28-1v-52l28-1 1-58z" fill="#391561"/>
<path transform="translate(1465,172)" d="m0 0h40l1 114 1 33 3 18 6 15 7 11 10 9 12 6 13 4 7 1h13l20-4 12-5 10-7 7-7 7-12 5-15 3-21 1-140h41l-1 244h-36l-4-1-1-33-12 13-12 9-15 8-18 6-7 1h-20l-22-4-17-6-12-6-12-9-7-8-10-15-5-12-5-16-2-13-1-12z" fill="#391561"/>
<path transform="translate(1850,205)" d="m0 0h21l16 3 13 5 11 7 9 8 9 13 7 14 4 13 3 23-1 18-3 16-5 12-8 14-7 9-9 8-13 8-13 5-16 3h-15l-16-3-15-6-13-9-9-9-10-15-6-16-4-15-1-8v-19l3-19 6-16 6-11 7-9 9-9 11-7 13-5z" fill="#FEFFFE"/>
<path transform="translate(453,168)" d="m0 0 2 1v245l-2 2h-60l-1-104v-135l1-8z" fill="#391561"/>
<path transform="translate(1040,221)" d="m0 0 13 1 13 3 12 6 10 8 8 10 8 16 3 10 1 7v20l-2 14-5 13-7 11-8 9-11 8-11 5-7 2-10 1h-9l-13-2-9-4-11-7-8-8-7-10-5-10-5-17-1-7v-18l3-15 7-16 9-12 10-8 10-5 15-4z" fill="#FEFFFE"/>
<path transform="translate(1257,140)" d="m0 0h32l21 1 16 3 11 4 9 7 7 7 7 14 3 13v16l-3 15-7 14-9 9-12 7-12 4-13 2h-68l-1-1v-114z" fill="#FEFFFE"/>
<path transform="translate(418,68)" d="m0 0h12l11 3 10 6 6 7 4 9 1 4v15l-8 16-8 7-9 4-4 1h-18l-11-4-10-9-5-8-3-11v-8l2-9 5-9 5-5 9-6z" fill="#391561"/>
</svg>
